<?xml version="1.0" encoding="UTF-8" standalone="no"?>
<!-- Created with Inkscape (http://www.inkscape.org/) -->

<svg
   width="40.355312mm"
   height="49.194172mm"
   viewBox="0 0 201.77656 245.97086"
   version="1.1"
   id="svg1"
   xml:space="preserve"
   xmlns:xlink="http://www.w3.org/1999/xlink"
   xmlns="http://www.w3.org/2000/svg"
   xmlns:svg="http://www.w3.org/2000/svg"><defs
     id="defs1"><linearGradient
       id="linearGradient18"><stop
         style="stop-color:#999999;stop-opacity:1;"
         offset="0"
         id="stop17" /><stop
         style="stop-color:#adadad;stop-opacity:1;"
         offset="1"
         id="stop18" /></linearGradient><linearGradient
       id="linearGradient16"><stop
         style="stop-color:#ffffff;stop-opacity:1;"
         offset="0"
         id="stop15" /><stop
         style="stop-color:#949494;stop-opacity:1;"
         offset="1"
         id="stop16" /></linearGradient><linearGradient
       id="linearGradient3"><stop
         style="stop-color:#000000;stop-opacity:1;"
         offset="0"
         id="stop3" /><stop
         style="stop-color:#404040;stop-opacity:1;"
         offset="1"
         id="stop4" /></linearGradient><linearGradient
       id="linearGradient1"><stop
         style="stop-color:#6b6b6b;stop-opacity:1;"
         offset="0"
         id="stop1" /><stop
         style="stop-color:#2e2e2e;stop-opacity:1;"
         offset="1"
         id="stop2" /></linearGradient><linearGradient
       xlink:href="#linearGradient1"
       id="linearGradient2"
       x1="1147.9899"
       y1="1016.1523"
       x2="1317.6956"
       y2="1185.8579"
       gradientUnits="userSpaceOnUse"
       gradientTransform="rotate(45,1753.3633,-104.01269)" /><linearGradient
       xlink:href="#linearGradient3"
       id="linearGradient4"
       x1="1151.5255"
       y1="1012.6167"
       x2="1351.0398"
       y2="1211.3859"
       gradientUnits="userSpaceOnUse"
       gradientTransform="rotate(45,1753.3633,-104.01269)" /><linearGradient
       xlink:href="#linearGradient18"
       id="linearGradient14"
       gradientUnits="userSpaceOnUse"
       gradientTransform="rotate(45,1422.297,35.631942)"
       x1="1147.9899"
       y1="1016.1523"
       x2="1317.6956"
       y2="1185.8579" /><linearGradient
       xlink:href="#linearGradient16"
       id="linearGradient15"
       gradientUnits="userSpaceOnUse"
       gradientTransform="rotate(45,1422.297,35.631942)"
       x1="1151.5255"
       y1="1012.6167"
       x2="1351.0398"
       y2="1211.3859" /></defs><g
     id="layer1"
     transform="translate(-437.50001,-537.49999)"><g
       id="g14"><path
         style="fill:none;stroke:url(#linearGradient2);stroke-width:25;stroke-linecap:round;stroke-linejoin:miter;stroke-dasharray:none;stroke-opacity:1"
         d="m 448.2234,274.99986 c 0,0 88.38828,88.38842 123.74369,123.74369 35.35534,35.35534 35.35527,35.35541 0,70.71067 -35.35534,35.35534 -35.35534,35.35534 -70.71075,7e-5 -35.35534,-35.35533 -35.35527,-35.3554 7e-5,-70.71074 35.35527,-35.35527 35.35534,-35.35534 70.71068,0"
         id="path7-0-3-5-8-1-1-5" /><path
         style="fill:none;stroke:#ffffff;stroke-width:35;stroke-linecap:round;stroke-linejoin:miter;stroke-dasharray:none;stroke-opacity:1"
         d="M 624.99999,274.99997 501.25641,398.74355"
         id="path7-3-7-9-4-4-2-9-3-1" /><path
         style="fill:none;stroke:#0f0f0f;stroke-width:25;stroke-linecap:round;stroke-linejoin:bevel;stroke-dasharray:none;stroke-opacity:1"
         d="m 584.35298,315.64697 35.35534,35.35534"
         id="path8-3-9-9-2-4-8-4" /><path
         style="fill:none;stroke:url(#linearGradient4);stroke-width:25;stroke-linecap:round;stroke-linejoin:miter;stroke-dasharray:none;stroke-opacity:1"
         d="m 624.99999,274.99997 c 0,0 -88.38824,88.38824 -123.74358,123.74358 -35.35534,35.35534 -35.35534,35.35534 0,70.71067"
         id="path7-3-7-9-4-4-2-9-3" /><g
         id="g18"><path
           style="fill:none;stroke:url(#linearGradient14);stroke-width:25;stroke-linecap:round;stroke-linejoin:miter;stroke-dasharray:none;stroke-opacity:1"
           d="m 450.00001,549.99999 c 0,0 88.38828,88.38842 123.74369,123.74369 35.35534,35.35534 35.35527,35.35541 0,70.71067 -35.35534,35.35534 -35.35534,35.35534 -70.71075,7e-5 -35.35534,-35.35533 -35.35527,-35.3554 7e-5,-70.71074 35.35527,-35.35527 35.35534,-35.35534 70.71068,0"
           id="path7-0-3-5-8-1-1-5-3" /><path
           style="fill:none;stroke:#191627;stroke-width:35;stroke-linecap:round;stroke-linejoin:miter;stroke-dasharray:none;stroke-opacity:1"
           d="m 562.68792,614.08878 -59.65491,59.65491"
           id="path7-3-7-9-4-4-2-9-3-1-7" /><path
           style="fill:none;stroke:#e9e9e9;stroke-width:25;stroke-linecap:round;stroke-linejoin:bevel;stroke-dasharray:none;stroke-opacity:1"
           d="m 586.12959,590.6471 35.35534,35.35534"
           id="path8-3-9-9-2-4-8-4-8" /><path
           style="fill:none;stroke:url(#linearGradient15);stroke-width:25;stroke-linecap:round;stroke-linejoin:miter;stroke-dasharray:none;stroke-opacity:1"
           d="m 626.7766,550.0001 c 0,0 -88.38824,88.38824 -123.74358,123.74358 -35.35534,35.35534 -35.35534,35.35534 0,70.71067"
           id="path7-3-7-9-4-4-2-9-3-8" /></g></g></g></svg>
